<svg xmlns="http://www.w3.org/2000/svg"><symbol id="first" viewBox="0 0 250 250"><path d="M124.2 1.4l107 61.8v123.6l-107 61.8-107-61.8V63.2l107-61.8z"/><path fill="#fff" d="M63.8 175.1l-4.7-6.7a2.1 2.1 0 0 1 .2-2.4l16.8-19.9h-8.3a1.9 1.9 0 0 1-2-2v-14.6a1.9 1.9 0 0 1 2-2h11.8a56.7 56.7 0 0 1-2.2-15.5 48 48 0 0 1 96 0 49.8 49.8 0 0 1-2.2 15.4H183a1.9 1.9 0 0 1 2 2V144a1.9 1.9 0 0 1-2 2h-10.5l16.7 20a2.1 2.1 0 0 1 0 2.4l-4.7 6.7a2.1 2.1 0 0 1-2.6.6l-9.7-5.1h-96l-9.7 5.1a2.2 2.2 0 0 1-2.7-.6zm30.8-29H81.2l-17.8 21.1 2.8 4.1 34.3-18.1zm-24.8-14.6V142h111v-10.5zm14-4.1h83a49 49 0 0 0 2.4-15.4 43.9 43.9 0 0 0-87.9 0c.1 5.3.5 10.8 2.5 15.4zm19.5 29L84 166.6h27.6zm-3.4-10.3l17 20.5h14.6l17-20.5zm45.3 10.3l-8.3 10.1h27.6zm22.1-10.3h-13.4l-6.1 7.1 34.5 18.1 2.8-3.9z"/></symbol><symbol id="second" viewBox="0 0 250 250"><path d="M125 1.4l107 61.8v123.6l-107 61.8-107-61.8V63.2L125 1.4z"/><path fill="#fff" d="M66.4 170.7a1.9 1.9 0 0 1-2-2v-24.6H37.5a2 2 0 0 1 0-4.1h15.3v-13.2a1.9 1.9 0 0 1 2-2h7.9a64.3 64.3 0 0 1 62.1-49.3c.2-.2.4-.2.8 0 30 .2 55 21.3 61.7 49.3h7.9a1.9 1.9 0 0 1 2 2V140h15.2a2 2 0 1 1 0 4.1h-26.7v24.6a1.9 1.9 0 0 1-2 2zm-9.5-41.8V140h136.3v-11.1zM121 79.8c-26 1.6-47.7 20.5-54 45h21.7zm-52.6 64.3v22.5H123v-22.5zM123 83.8l-29.2 41H123zm4.1-4.3v45.3h56A60.3 60.3 0 0 0 127 79.5zm0 64.5v22.5h9.1v-22.4zm13.2 0v22.5h41.4v-22.4z"/></symbol><symbol id="third" viewBox="0 0 250 250"><path d="M126 1.6l107 61.8v123.5l-107 61.8-107-61.8V63.4L126 1.6z"/><path fill="#fff" d="M63.9 170.8a2 2 0 0 1 0-4.1h10.2V154H63.9a1.9 1.9 0 0 1-2-2v-40a1.9 1.9 0 0 1 2-2h13.4c1-28.8 22.5-44.6 48.7-44.6s47.7 15.8 48.7 44.6h13.4a1.9 1.9 0 0 1 2 2v40a1.9 1.9 0 0 1-2 2h-10.2v12.8H188a2 2 0 1 1 0 4.1zm2-56.8v35.9h120.2V114zm12.2 40v12.8h13V154zm3.2-44h89.3c-1-26.2-20.9-40.6-44.6-40.6s-43.6 14.4-44.6 40.5zm13.8 44v12.8h20.3V154zm24.4 0v12.8h13V154zm55-13.8H125a2 2 0 1 1 0-4.1h49.5a2 2 0 0 1 0 4.1zm-38 13.8v12.8h20.3V154zm24.3 0v12.8h13V154z"/></symbol></svg>